<mxfile host="app.diagrams.net" modified="2022-12-26T16:01:13.151Z" agent="5.0 (Windows NT 10.0; Win64; x64) AppleWebKit/537.36 (KHTML, like Gecko) Chrome/106.0.0.0 YaBrowser/22.11.3.818 Yowser/2.5 Safari/537.36" etag="ATsakvCHIL_zGTcbQ4OF" version="20.7.4" type="github" pages="2">
  <diagram id="j6V6h9FoFdwmIfW46cJj" name="Страница 1">
    <mxGraphModel dx="672" dy="-442" grid="1" gridSize="10" guides="1" tooltips="1" connect="1" arrows="1" fold="1" page="1" pageScale="1" pageWidth="827" pageHeight="1169" math="0" shadow="0">
      <root>
        <mxCell id="0" />
        <mxCell id="1" parent="0" />
        <mxCell id="TxWiF_q1xFuEPfneg0Fp-5" value="клиент" style="rounded=0;whiteSpace=wrap;html=1;" parent="1" vertex="1">
          <mxGeometry x="280" y="1210" width="120" height="60" as="geometry" />
        </mxCell>
        <mxCell id="TxWiF_q1xFuEPfneg0Fp-6" value="сайт поликлиники" style="rounded=0;whiteSpace=wrap;html=1;" parent="1" vertex="1">
          <mxGeometry x="460" y="1210" width="120" height="60" as="geometry" />
        </mxCell>
        <mxCell id="TxWiF_q1xFuEPfneg0Fp-7" value="регистратура" style="rounded=0;whiteSpace=wrap;html=1;" parent="1" vertex="1">
          <mxGeometry x="640" y="1210" width="120" height="60" as="geometry" />
        </mxCell>
        <mxCell id="TxWiF_q1xFuEPfneg0Fp-8" value="" style="shape=umlActor;verticalLabelPosition=bottom;verticalAlign=top;html=1;outlineConnect=0;" parent="1" vertex="1">
          <mxGeometry x="170" y="1210" width="30" height="60" as="geometry" />
        </mxCell>
        <mxCell id="TxWiF_q1xFuEPfneg0Fp-9" value="" style="endArrow=none;dashed=1;html=1;strokeWidth=2;rounded=0;startArrow=none;" parent="1" source="TxWiF_q1xFuEPfneg0Fp-13" edge="1">
          <mxGeometry width="50" height="50" relative="1" as="geometry">
            <mxPoint x="344" y="1760" as="sourcePoint" />
            <mxPoint x="344.38" y="1270" as="targetPoint" />
          </mxGeometry>
        </mxCell>
        <mxCell id="TxWiF_q1xFuEPfneg0Fp-10" value="" style="endArrow=none;dashed=1;html=1;strokeWidth=2;rounded=0;startArrow=none;" parent="1" edge="1">
          <mxGeometry width="50" height="50" relative="1" as="geometry">
            <mxPoint x="705" y="1400" as="sourcePoint" />
            <mxPoint x="705.3800000000001" y="1270" as="targetPoint" />
          </mxGeometry>
        </mxCell>
        <mxCell id="TxWiF_q1xFuEPfneg0Fp-11" value="" style="endArrow=none;dashed=1;html=1;strokeWidth=2;rounded=0;startArrow=none;" parent="1" source="TxWiF_q1xFuEPfneg0Fp-17" edge="1">
          <mxGeometry width="50" height="50" relative="1" as="geometry">
            <mxPoint x="520" y="1760" as="sourcePoint" />
            <mxPoint x="520.3800000000001" y="1270" as="targetPoint" />
          </mxGeometry>
        </mxCell>
        <mxCell id="TxWiF_q1xFuEPfneg0Fp-13" value="" style="html=1;points=[];perimeter=orthogonalPerimeter;" parent="1" vertex="1">
          <mxGeometry x="340" y="1320" width="10" height="80" as="geometry" />
        </mxCell>
        <mxCell id="TxWiF_q1xFuEPfneg0Fp-15" value="" style="endArrow=none;dashed=1;html=1;strokeWidth=2;rounded=0;startArrow=none;" parent="1" source="TxWiF_q1xFuEPfneg0Fp-32" target="TxWiF_q1xFuEPfneg0Fp-13" edge="1">
          <mxGeometry width="50" height="50" relative="1" as="geometry">
            <mxPoint x="344" y="1760" as="sourcePoint" />
            <mxPoint x="344.3800000000001" y="1270" as="targetPoint" />
          </mxGeometry>
        </mxCell>
        <mxCell id="TxWiF_q1xFuEPfneg0Fp-17" value="" style="html=1;points=[];perimeter=orthogonalPerimeter;" parent="1" vertex="1">
          <mxGeometry x="515" y="1320" width="10" height="80" as="geometry" />
        </mxCell>
        <mxCell id="TxWiF_q1xFuEPfneg0Fp-18" value="" style="endArrow=none;dashed=1;html=1;strokeWidth=2;rounded=0;startArrow=none;" parent="1" source="TxWiF_q1xFuEPfneg0Fp-35" target="TxWiF_q1xFuEPfneg0Fp-17" edge="1">
          <mxGeometry width="50" height="50" relative="1" as="geometry">
            <mxPoint x="520" y="1760" as="sourcePoint" />
            <mxPoint x="520.3800000000001" y="1270" as="targetPoint" />
          </mxGeometry>
        </mxCell>
        <mxCell id="TxWiF_q1xFuEPfneg0Fp-19" value="" style="endArrow=none;dashed=1;html=1;strokeWidth=2;rounded=0;startArrow=none;" parent="1" edge="1">
          <mxGeometry width="50" height="50" relative="1" as="geometry">
            <mxPoint x="705" y="1560" as="sourcePoint" />
            <mxPoint x="705" y="1400" as="targetPoint" />
          </mxGeometry>
        </mxCell>
        <mxCell id="TxWiF_q1xFuEPfneg0Fp-20" value="" style="endArrow=classic;html=1;rounded=0;exitX=1;exitY=0.138;exitDx=0;exitDy=0;exitPerimeter=0;" parent="1" source="TxWiF_q1xFuEPfneg0Fp-13" edge="1">
          <mxGeometry width="50" height="50" relative="1" as="geometry">
            <mxPoint x="530" y="1560" as="sourcePoint" />
            <mxPoint x="510" y="1331" as="targetPoint" />
          </mxGeometry>
        </mxCell>
        <mxCell id="TxWiF_q1xFuEPfneg0Fp-21" value="&lt;font&gt;ввод данных&amp;nbsp;&lt;/font&gt;&lt;font&gt;для&lt;br&gt;регистрации на сайте&lt;/font&gt;" style="text;html=1;align=center;verticalAlign=middle;resizable=0;points=[];autosize=1;strokeColor=none;fillColor=none;" parent="1" vertex="1">
          <mxGeometry x="375" y="1310" width="140" height="40" as="geometry" />
        </mxCell>
        <mxCell id="TxWiF_q1xFuEPfneg0Fp-23" value="" style="endArrow=classic;html=1;rounded=0;exitX=1;exitY=0.138;exitDx=0;exitDy=0;exitPerimeter=0;" parent="1" edge="1">
          <mxGeometry width="50" height="50" relative="1" as="geometry">
            <mxPoint x="355" y="1490.04" as="sourcePoint" />
            <mxPoint x="515" y="1490" as="targetPoint" />
          </mxGeometry>
        </mxCell>
        <mxCell id="TxWiF_q1xFuEPfneg0Fp-24" value="" style="endArrow=classic;html=1;rounded=0;exitX=1;exitY=0.138;exitDx=0;exitDy=0;exitPerimeter=0;" parent="1" edge="1">
          <mxGeometry width="50" height="50" relative="1" as="geometry">
            <mxPoint x="350" y="1810.04" as="sourcePoint" />
            <mxPoint x="510" y="1810" as="targetPoint" />
          </mxGeometry>
        </mxCell>
        <mxCell id="TxWiF_q1xFuEPfneg0Fp-25" value="" style="endArrow=classic;html=1;rounded=0;exitX=1;exitY=0.138;exitDx=0;exitDy=0;exitPerimeter=0;" parent="1" edge="1">
          <mxGeometry width="50" height="50" relative="1" as="geometry">
            <mxPoint x="530" y="1330.04" as="sourcePoint" />
            <mxPoint x="525" y="1380" as="targetPoint" />
            <Array as="points">
              <mxPoint x="600" y="1330" />
              <mxPoint x="600" y="1360" />
              <mxPoint x="600" y="1380" />
            </Array>
          </mxGeometry>
        </mxCell>
        <mxCell id="TxWiF_q1xFuEPfneg0Fp-26" value="" style="endArrow=classic;html=1;rounded=0;dashed=1;" parent="1" edge="1">
          <mxGeometry width="50" height="50" relative="1" as="geometry">
            <mxPoint x="510" y="1390" as="sourcePoint" />
            <mxPoint x="350" y="1390" as="targetPoint" />
          </mxGeometry>
        </mxCell>
        <mxCell id="TxWiF_q1xFuEPfneg0Fp-29" value="обработка&amp;nbsp;&lt;br&gt;&lt;font&gt;данных&lt;/font&gt;" style="text;html=1;align=center;verticalAlign=middle;resizable=0;points=[];autosize=1;strokeColor=none;fillColor=none;" parent="1" vertex="1">
          <mxGeometry x="520" y="1310" width="80" height="40" as="geometry" />
        </mxCell>
        <mxCell id="TxWiF_q1xFuEPfneg0Fp-30" value="завершение регистрации&lt;br&gt;&lt;font&gt;на сайте&lt;/font&gt;" style="text;html=1;align=center;verticalAlign=middle;resizable=0;points=[];autosize=1;strokeColor=none;fillColor=none;" parent="1" vertex="1">
          <mxGeometry x="355" y="1370" width="160" height="40" as="geometry" />
        </mxCell>
        <mxCell id="TxWiF_q1xFuEPfneg0Fp-32" value="" style="html=1;points=[];perimeter=orthogonalPerimeter;" parent="1" vertex="1">
          <mxGeometry x="340" y="1480" width="10" height="80" as="geometry" />
        </mxCell>
        <mxCell id="TxWiF_q1xFuEPfneg0Fp-33" value="" style="endArrow=none;dashed=1;html=1;strokeWidth=2;rounded=0;startArrow=none;" parent="1" source="TxWiF_q1xFuEPfneg0Fp-59" target="TxWiF_q1xFuEPfneg0Fp-32" edge="1">
          <mxGeometry width="50" height="50" relative="1" as="geometry">
            <mxPoint x="344" y="1760" as="sourcePoint" />
            <mxPoint x="344" y="1400" as="targetPoint" />
          </mxGeometry>
        </mxCell>
        <mxCell id="TxWiF_q1xFuEPfneg0Fp-35" value="" style="html=1;points=[];perimeter=orthogonalPerimeter;" parent="1" vertex="1">
          <mxGeometry x="515" y="1480" width="10" height="80" as="geometry" />
        </mxCell>
        <mxCell id="TxWiF_q1xFuEPfneg0Fp-36" value="" style="endArrow=none;dashed=1;html=1;strokeWidth=2;rounded=0;startArrow=none;" parent="1" source="TxWiF_q1xFuEPfneg0Fp-58" target="TxWiF_q1xFuEPfneg0Fp-35" edge="1">
          <mxGeometry width="50" height="50" relative="1" as="geometry">
            <mxPoint x="520" y="1760" as="sourcePoint" />
            <mxPoint x="520" y="1400" as="targetPoint" />
          </mxGeometry>
        </mxCell>
        <mxCell id="TxWiF_q1xFuEPfneg0Fp-37" value="" style="endArrow=none;dashed=1;html=1;strokeWidth=2;rounded=0;startArrow=none;" parent="1" source="ALhobKQU9dYEfAt04eq7-3" edge="1">
          <mxGeometry width="50" height="50" relative="1" as="geometry">
            <mxPoint x="705" y="2040" as="sourcePoint" />
            <mxPoint x="705" y="1560" as="targetPoint" />
          </mxGeometry>
        </mxCell>
        <mxCell id="TxWiF_q1xFuEPfneg0Fp-39" value="" style="endArrow=classic;html=1;rounded=0;exitX=1;exitY=0.138;exitDx=0;exitDy=0;exitPerimeter=0;" parent="1" edge="1">
          <mxGeometry width="50" height="50" relative="1" as="geometry">
            <mxPoint x="351.25" y="1870.04" as="sourcePoint" />
            <mxPoint x="511.25" y="1870" as="targetPoint" />
          </mxGeometry>
        </mxCell>
        <mxCell id="TxWiF_q1xFuEPfneg0Fp-40" value="" style="endArrow=classic;html=1;rounded=0;exitX=1;exitY=0.138;exitDx=0;exitDy=0;exitPerimeter=0;" parent="1" edge="1">
          <mxGeometry width="50" height="50" relative="1" as="geometry">
            <mxPoint x="355" y="1690.04" as="sourcePoint" />
            <mxPoint x="515" y="1690" as="targetPoint" />
          </mxGeometry>
        </mxCell>
        <mxCell id="TxWiF_q1xFuEPfneg0Fp-41" value="" style="endArrow=classic;html=1;rounded=0;exitX=1;exitY=0.138;exitDx=0;exitDy=0;exitPerimeter=0;" parent="1" edge="1">
          <mxGeometry width="50" height="50" relative="1" as="geometry">
            <mxPoint x="351.25" y="1650.04" as="sourcePoint" />
            <mxPoint x="511.25" y="1650" as="targetPoint" />
          </mxGeometry>
        </mxCell>
        <mxCell id="TxWiF_q1xFuEPfneg0Fp-42" value="" style="endArrow=classic;html=1;rounded=0;exitX=1;exitY=0.138;exitDx=0;exitDy=0;exitPerimeter=0;edgeStyle=orthogonalEdgeStyle;entryX=1.1;entryY=0.788;entryDx=0;entryDy=0;entryPerimeter=0;" parent="1" source="TxWiF_q1xFuEPfneg0Fp-35" target="TxWiF_q1xFuEPfneg0Fp-35" edge="1">
          <mxGeometry width="50" height="50" relative="1" as="geometry">
            <mxPoint x="540" y="1480.04" as="sourcePoint" />
            <mxPoint x="700" y="1480" as="targetPoint" />
            <Array as="points">
              <mxPoint x="525" y="1490" />
              <mxPoint x="630" y="1490" />
              <mxPoint x="630" y="1543" />
            </Array>
          </mxGeometry>
        </mxCell>
        <mxCell id="TxWiF_q1xFuEPfneg0Fp-44" value="авторизация клиента &lt;br&gt;на сайте" style="text;html=1;align=center;verticalAlign=middle;resizable=0;points=[];autosize=1;strokeColor=none;fillColor=none;" parent="1" vertex="1">
          <mxGeometry x="361.25" y="1470" width="140" height="40" as="geometry" />
        </mxCell>
        <mxCell id="TxWiF_q1xFuEPfneg0Fp-45" value="ввод&lt;br&gt;&lt;font&gt;данных клиента&lt;/font&gt;" style="text;html=1;align=center;verticalAlign=middle;resizable=0;points=[];autosize=1;strokeColor=none;fillColor=none;" parent="1" vertex="1">
          <mxGeometry x="523.76" y="1470" width="110" height="40" as="geometry" />
        </mxCell>
        <mxCell id="TxWiF_q1xFuEPfneg0Fp-50" value="" style="endArrow=classic;html=1;rounded=0;dashed=1;exitX=-0.3;exitY=0.513;exitDx=0;exitDy=0;exitPerimeter=0;" parent="1" source="TxWiF_q1xFuEPfneg0Fp-55" edge="1">
          <mxGeometry width="50" height="50" relative="1" as="geometry">
            <mxPoint x="689.0699999999999" y="1968.75" as="sourcePoint" />
            <mxPoint x="350" y="1968.75" as="targetPoint" />
          </mxGeometry>
        </mxCell>
        <mxCell id="TxWiF_q1xFuEPfneg0Fp-52" value="" style="endArrow=classic;html=1;rounded=0;dashed=1;" parent="1" edge="1">
          <mxGeometry width="50" height="50" relative="1" as="geometry">
            <mxPoint x="510" y="1550" as="sourcePoint" />
            <mxPoint x="350" y="1550" as="targetPoint" />
          </mxGeometry>
        </mxCell>
        <mxCell id="TxWiF_q1xFuEPfneg0Fp-53" value="завершение&amp;nbsp;&lt;br&gt;&lt;font&gt;авторизации&lt;/font&gt;" style="text;html=1;align=center;verticalAlign=middle;resizable=0;points=[];autosize=1;strokeColor=none;fillColor=none;" parent="1" vertex="1">
          <mxGeometry x="385" y="1530" width="90" height="40" as="geometry" />
        </mxCell>
        <mxCell id="TxWiF_q1xFuEPfneg0Fp-59" value="" style="html=1;points=[];perimeter=orthogonalPerimeter;" parent="1" vertex="1">
          <mxGeometry x="340" y="1640" width="10" height="80" as="geometry" />
        </mxCell>
        <mxCell id="TxWiF_q1xFuEPfneg0Fp-60" value="" style="endArrow=none;dashed=1;html=1;strokeWidth=2;rounded=0;startArrow=none;" parent="1" source="TxWiF_q1xFuEPfneg0Fp-56" target="TxWiF_q1xFuEPfneg0Fp-59" edge="1">
          <mxGeometry width="50" height="50" relative="1" as="geometry">
            <mxPoint x="340" y="2040" as="sourcePoint" />
            <mxPoint x="344" y="1560" as="targetPoint" />
          </mxGeometry>
        </mxCell>
        <mxCell id="TxWiF_q1xFuEPfneg0Fp-58" value="" style="html=1;points=[];perimeter=orthogonalPerimeter;" parent="1" vertex="1">
          <mxGeometry x="515" y="1640" width="10" height="80" as="geometry" />
        </mxCell>
        <mxCell id="TxWiF_q1xFuEPfneg0Fp-61" value="" style="endArrow=none;dashed=1;html=1;strokeWidth=2;rounded=0;startArrow=none;" parent="1" source="TxWiF_q1xFuEPfneg0Fp-57" target="TxWiF_q1xFuEPfneg0Fp-58" edge="1">
          <mxGeometry width="50" height="50" relative="1" as="geometry">
            <mxPoint x="520" y="2040" as="sourcePoint" />
            <mxPoint x="520" y="1560" as="targetPoint" />
          </mxGeometry>
        </mxCell>
        <mxCell id="TxWiF_q1xFuEPfneg0Fp-62" value="выбор&lt;br&gt;&lt;font&gt;направления&lt;/font&gt;" style="text;html=1;align=center;verticalAlign=middle;resizable=0;points=[];autosize=1;strokeColor=none;fillColor=none;" parent="1" vertex="1">
          <mxGeometry x="380" y="1630" width="100" height="40" as="geometry" />
        </mxCell>
        <mxCell id="TxWiF_q1xFuEPfneg0Fp-63" value="выбор&amp;nbsp;&lt;br&gt;&lt;font&gt;специалиста&lt;/font&gt;" style="text;html=1;align=center;verticalAlign=middle;resizable=0;points=[];autosize=1;strokeColor=none;fillColor=none;" parent="1" vertex="1">
          <mxGeometry x="378.75" y="1670" width="90" height="40" as="geometry" />
        </mxCell>
        <mxCell id="TxWiF_q1xFuEPfneg0Fp-56" value="" style="html=1;points=[];perimeter=orthogonalPerimeter;" parent="1" vertex="1">
          <mxGeometry x="335" y="1800" width="10" height="100" as="geometry" />
        </mxCell>
        <mxCell id="TxWiF_q1xFuEPfneg0Fp-64" value="" style="endArrow=none;dashed=1;html=1;strokeWidth=2;rounded=0;startArrow=none;" parent="1" source="ALhobKQU9dYEfAt04eq7-5" target="TxWiF_q1xFuEPfneg0Fp-56" edge="1">
          <mxGeometry width="50" height="50" relative="1" as="geometry">
            <mxPoint x="340" y="2040" as="sourcePoint" />
            <mxPoint x="340" y="1720" as="targetPoint" />
          </mxGeometry>
        </mxCell>
        <mxCell id="TxWiF_q1xFuEPfneg0Fp-57" value="" style="html=1;points=[];perimeter=orthogonalPerimeter;" parent="1" vertex="1">
          <mxGeometry x="515" y="1800" width="10" height="100" as="geometry" />
        </mxCell>
        <mxCell id="TxWiF_q1xFuEPfneg0Fp-65" value="" style="endArrow=none;dashed=1;html=1;strokeWidth=2;rounded=0;startArrow=none;" parent="1" target="TxWiF_q1xFuEPfneg0Fp-57" edge="1">
          <mxGeometry width="50" height="50" relative="1" as="geometry">
            <mxPoint x="519" y="2020" as="sourcePoint" />
            <mxPoint x="520" y="1720" as="targetPoint" />
          </mxGeometry>
        </mxCell>
        <mxCell id="TxWiF_q1xFuEPfneg0Fp-66" value="&lt;font&gt;выбор свободной&lt;br&gt;&amp;nbsp;даты&amp;nbsp;&lt;/font&gt;&lt;font&gt;и времени&lt;/font&gt;" style="text;html=1;align=center;verticalAlign=middle;resizable=0;points=[];autosize=1;strokeColor=none;fillColor=none;" parent="1" vertex="1">
          <mxGeometry x="378.75" y="1790" width="120" height="40" as="geometry" />
        </mxCell>
        <mxCell id="ALhobKQU9dYEfAt04eq7-2" value="&lt;div&gt;ввод данных &lt;br&gt;&lt;/div&gt;&lt;div&gt;пациента&lt;/div&gt;" style="text;html=1;align=center;verticalAlign=middle;resizable=0;points=[];autosize=1;strokeColor=none;fillColor=none;" parent="1" vertex="1">
          <mxGeometry x="393.75" y="1850" width="90" height="40" as="geometry" />
        </mxCell>
        <mxCell id="ALhobKQU9dYEfAt04eq7-5" value="" style="html=1;points=[];perimeter=orthogonalPerimeter;" parent="1" vertex="1">
          <mxGeometry x="335" y="1940" width="10" height="80" as="geometry" />
        </mxCell>
        <mxCell id="ALhobKQU9dYEfAt04eq7-6" value="" style="endArrow=none;dashed=1;html=1;strokeWidth=2;rounded=0;startArrow=none;" parent="1" target="ALhobKQU9dYEfAt04eq7-5" edge="1">
          <mxGeometry width="50" height="50" relative="1" as="geometry">
            <mxPoint x="340" y="2029.9999999999998" as="sourcePoint" />
            <mxPoint x="340" y="1879.9999999999995" as="targetPoint" />
          </mxGeometry>
        </mxCell>
        <mxCell id="ALhobKQU9dYEfAt04eq7-7" value="" style="endArrow=none;dashed=1;html=1;strokeWidth=2;rounded=0;" parent="1" edge="1">
          <mxGeometry width="50" height="50" relative="1" as="geometry">
            <mxPoint x="520" y="2039.9999999999995" as="sourcePoint" />
            <mxPoint x="520" y="2020" as="targetPoint" />
          </mxGeometry>
        </mxCell>
        <mxCell id="ALhobKQU9dYEfAt04eq7-10" value="" style="endArrow=classic;html=1;rounded=0;exitX=1;exitY=0.138;exitDx=0;exitDy=0;exitPerimeter=0;" parent="1" edge="1">
          <mxGeometry width="50" height="50" relative="1" as="geometry">
            <mxPoint x="530" y="1840.04" as="sourcePoint" />
            <mxPoint x="690" y="1840" as="targetPoint" />
          </mxGeometry>
        </mxCell>
        <mxCell id="ALhobKQU9dYEfAt04eq7-3" value="" style="html=1;points=[];perimeter=orthogonalPerimeter;" parent="1" vertex="1">
          <mxGeometry x="700" y="1790" width="10" height="110" as="geometry" />
        </mxCell>
        <mxCell id="ALhobKQU9dYEfAt04eq7-11" value="" style="endArrow=none;dashed=1;html=1;strokeWidth=2;rounded=0;startArrow=none;" parent="1" source="TxWiF_q1xFuEPfneg0Fp-55" target="ALhobKQU9dYEfAt04eq7-3" edge="1">
          <mxGeometry width="50" height="50" relative="1" as="geometry">
            <mxPoint x="705" y="2039.9999999999995" as="sourcePoint" />
            <mxPoint x="705" y="1559.9999999999995" as="targetPoint" />
          </mxGeometry>
        </mxCell>
        <mxCell id="ALhobKQU9dYEfAt04eq7-14" value="&lt;div&gt;осуществление &lt;br&gt;&lt;/div&gt;&lt;div&gt;записи&lt;br&gt;&lt;/div&gt;" style="text;html=1;align=center;verticalAlign=middle;resizable=0;points=[];autosize=1;strokeColor=none;fillColor=none;" parent="1" vertex="1">
          <mxGeometry x="554.07" y="1820" width="110" height="40" as="geometry" />
        </mxCell>
        <mxCell id="TxWiF_q1xFuEPfneg0Fp-55" value="" style="html=1;points=[];perimeter=orthogonalPerimeter;" parent="1" vertex="1">
          <mxGeometry x="700" y="1930" width="10" height="80" as="geometry" />
        </mxCell>
        <mxCell id="ALhobKQU9dYEfAt04eq7-15" value="" style="endArrow=none;dashed=1;html=1;strokeWidth=2;rounded=0;" parent="1" target="TxWiF_q1xFuEPfneg0Fp-55" edge="1">
          <mxGeometry width="50" height="50" relative="1" as="geometry">
            <mxPoint x="705" y="2039.9999999999995" as="sourcePoint" />
            <mxPoint x="705" y="1900" as="targetPoint" />
          </mxGeometry>
        </mxCell>
        <mxCell id="ALhobKQU9dYEfAt04eq7-16" value="&lt;div&gt;выдача&lt;/div&gt;&lt;div&gt;талона&lt;br&gt;&lt;/div&gt;" style="text;html=1;align=center;verticalAlign=middle;resizable=0;points=[];autosize=1;strokeColor=none;fillColor=none;" parent="1" vertex="1">
          <mxGeometry x="431.25000000000006" y="1950" width="70" height="40" as="geometry" />
        </mxCell>
        <mxCell id="ALhobKQU9dYEfAt04eq7-18" value="" style="endArrow=none;dashed=1;html=1;strokeWidth=2;rounded=0;startArrow=none;" parent="1" source="fYBuSzv-L18BOnukDocC-7" edge="1">
          <mxGeometry width="50" height="50" relative="1" as="geometry">
            <mxPoint x="340" y="2200" as="sourcePoint" />
            <mxPoint x="340" y="2029.9999999999998" as="targetPoint" />
          </mxGeometry>
        </mxCell>
        <mxCell id="ALhobKQU9dYEfAt04eq7-19" value="" style="endArrow=classic;html=1;rounded=0;exitX=1.075;exitY=0.216;exitDx=0;exitDy=0;exitPerimeter=0;edgeStyle=orthogonalEdgeStyle;entryX=1.1;entryY=0.788;entryDx=0;entryDy=0;entryPerimeter=0;" parent="1" source="ALhobKQU9dYEfAt04eq7-3" edge="1">
          <mxGeometry width="50" height="50" relative="1" as="geometry">
            <mxPoint x="715" y="1891.04" as="sourcePoint" />
            <mxPoint x="716" y="1943.04" as="targetPoint" />
            <Array as="points">
              <mxPoint x="810" y="1814" />
              <mxPoint x="810" y="1943" />
            </Array>
          </mxGeometry>
        </mxCell>
        <mxCell id="ALhobKQU9dYEfAt04eq7-20" value="&lt;div&gt;оформление &lt;br&gt;&lt;/div&gt;&lt;div&gt;талона&lt;br&gt;&lt;/div&gt;" style="text;html=1;align=center;verticalAlign=middle;resizable=0;points=[];autosize=1;strokeColor=none;fillColor=none;" parent="1" vertex="1">
          <mxGeometry x="720" y="1790" width="100" height="40" as="geometry" />
        </mxCell>
        <mxCell id="ALhobKQU9dYEfAt04eq7-23" value="клиент" style="text;html=1;align=center;verticalAlign=middle;resizable=0;points=[];autosize=1;strokeColor=none;fillColor=none;" parent="1" vertex="1">
          <mxGeometry x="155" y="1270" width="60" height="30" as="geometry" />
        </mxCell>
        <mxCell id="fYBuSzv-L18BOnukDocC-1" value="врач" style="rounded=0;whiteSpace=wrap;html=1;" parent="1" vertex="1">
          <mxGeometry x="860" y="1210" width="120" height="60" as="geometry" />
        </mxCell>
        <mxCell id="fYBuSzv-L18BOnukDocC-2" value="" style="endArrow=none;dashed=1;html=1;strokeWidth=2;rounded=0;startArrow=none;" parent="1" source="fYBuSzv-L18BOnukDocC-3" edge="1">
          <mxGeometry width="50" height="50" relative="1" as="geometry">
            <mxPoint x="920" y="2040" as="sourcePoint" />
            <mxPoint x="920" y="1270" as="targetPoint" />
          </mxGeometry>
        </mxCell>
        <mxCell id="fYBuSzv-L18BOnukDocC-3" value="" style="html=1;points=[];perimeter=orthogonalPerimeter;" parent="1" vertex="1">
          <mxGeometry x="915" y="1930" width="10" height="80" as="geometry" />
        </mxCell>
        <mxCell id="fYBuSzv-L18BOnukDocC-4" value="" style="endArrow=none;dashed=1;html=1;strokeWidth=2;rounded=0;startArrow=none;" parent="1" source="fYBuSzv-L18BOnukDocC-9" target="fYBuSzv-L18BOnukDocC-3" edge="1">
          <mxGeometry width="50" height="50" relative="1" as="geometry">
            <mxPoint x="920" y="2190" as="sourcePoint" />
            <mxPoint x="920" y="1270" as="targetPoint" />
          </mxGeometry>
        </mxCell>
        <mxCell id="fYBuSzv-L18BOnukDocC-5" value="" style="endArrow=classic;html=1;rounded=0;exitX=1;exitY=0.788;exitDx=0;exitDy=0;exitPerimeter=0;" parent="1" source="TxWiF_q1xFuEPfneg0Fp-55" edge="1">
          <mxGeometry width="50" height="50" relative="1" as="geometry">
            <mxPoint x="720" y="1990.04" as="sourcePoint" />
            <mxPoint x="910" y="1993" as="targetPoint" />
          </mxGeometry>
        </mxCell>
        <mxCell id="fYBuSzv-L18BOnukDocC-6" value="запись к врачу" style="text;html=1;align=center;verticalAlign=middle;resizable=0;points=[];autosize=1;strokeColor=none;fillColor=none;" parent="1" vertex="1">
          <mxGeometry x="760" y="1970" width="100" height="30" as="geometry" />
        </mxCell>
        <mxCell id="fYBuSzv-L18BOnukDocC-7" value="" style="html=1;points=[];perimeter=orthogonalPerimeter;" parent="1" vertex="1">
          <mxGeometry x="335" y="2080" width="10" height="80" as="geometry" />
        </mxCell>
        <mxCell id="fYBuSzv-L18BOnukDocC-8" value="" style="endArrow=none;dashed=1;html=1;strokeWidth=2;rounded=0;startArrow=none;" parent="1" source="fYBuSzv-L18BOnukDocC-34" target="fYBuSzv-L18BOnukDocC-7" edge="1">
          <mxGeometry width="50" height="50" relative="1" as="geometry">
            <mxPoint x="340" y="2440" as="sourcePoint" />
            <mxPoint x="340" y="2029.9999999999998" as="targetPoint" />
          </mxGeometry>
        </mxCell>
        <mxCell id="fYBuSzv-L18BOnukDocC-9" value="" style="html=1;points=[];perimeter=orthogonalPerimeter;" parent="1" vertex="1">
          <mxGeometry x="915" y="2080" width="10" height="80" as="geometry" />
        </mxCell>
        <mxCell id="fYBuSzv-L18BOnukDocC-10" value="" style="endArrow=none;dashed=1;html=1;strokeWidth=2;rounded=0;startArrow=none;" parent="1" source="fYBuSzv-L18BOnukDocC-17" target="fYBuSzv-L18BOnukDocC-9" edge="1">
          <mxGeometry width="50" height="50" relative="1" as="geometry">
            <mxPoint x="920" y="2330" as="sourcePoint" />
            <mxPoint x="920" y="2009.9999999999998" as="targetPoint" />
          </mxGeometry>
        </mxCell>
        <mxCell id="fYBuSzv-L18BOnukDocC-12" value="" style="endArrow=classic;html=1;rounded=0;exitX=1;exitY=0.788;exitDx=0;exitDy=0;exitPerimeter=0;" parent="1" edge="1">
          <mxGeometry width="50" height="50" relative="1" as="geometry">
            <mxPoint x="345" y="2090.04" as="sourcePoint" />
            <mxPoint x="910" y="2090" as="targetPoint" />
          </mxGeometry>
        </mxCell>
        <mxCell id="fYBuSzv-L18BOnukDocC-13" value="посещение врача" style="edgeLabel;html=1;align=center;verticalAlign=middle;resizable=0;points=[];" parent="fYBuSzv-L18BOnukDocC-12" vertex="1" connectable="0">
          <mxGeometry x="-0.0749" y="4" relative="1" as="geometry">
            <mxPoint x="3" y="-6" as="offset" />
          </mxGeometry>
        </mxCell>
        <mxCell id="fYBuSzv-L18BOnukDocC-14" value="" style="endArrow=classic;html=1;rounded=0;dashed=1;exitX=-0.3;exitY=0.513;exitDx=0;exitDy=0;exitPerimeter=0;" parent="1" edge="1">
          <mxGeometry width="50" height="50" relative="1" as="geometry">
            <mxPoint x="915" y="2142.29" as="sourcePoint" />
            <mxPoint x="350" y="2140" as="targetPoint" />
          </mxGeometry>
        </mxCell>
        <mxCell id="fYBuSzv-L18BOnukDocC-15" value="информация о приёме" style="edgeLabel;html=1;align=center;verticalAlign=middle;resizable=0;points=[];" parent="fYBuSzv-L18BOnukDocC-14" vertex="1" connectable="0">
          <mxGeometry x="0.1051" y="-2" relative="1" as="geometry">
            <mxPoint x="6" y="-9" as="offset" />
          </mxGeometry>
        </mxCell>
        <mxCell id="fYBuSzv-L18BOnukDocC-16" value="" style="html=1;points=[];perimeter=orthogonalPerimeter;" parent="1" vertex="1">
          <mxGeometry x="335" y="2200" width="10" height="80" as="geometry" />
        </mxCell>
        <mxCell id="fYBuSzv-L18BOnukDocC-17" value="" style="html=1;points=[];perimeter=orthogonalPerimeter;" parent="1" vertex="1">
          <mxGeometry x="915" y="2200" width="10" height="80" as="geometry" />
        </mxCell>
        <mxCell id="fYBuSzv-L18BOnukDocC-18" value="" style="endArrow=none;dashed=1;html=1;strokeWidth=2;rounded=0;startArrow=none;" parent="1" source="fYBuSzv-L18BOnukDocC-33" target="fYBuSzv-L18BOnukDocC-17" edge="1">
          <mxGeometry width="50" height="50" relative="1" as="geometry">
            <mxPoint x="920" y="2440" as="sourcePoint" />
            <mxPoint x="920" y="2160" as="targetPoint" />
          </mxGeometry>
        </mxCell>
        <mxCell id="fYBuSzv-L18BOnukDocC-23" value="" style="endArrow=classic;html=1;rounded=0;dashed=1;exitX=-0.3;exitY=0.513;exitDx=0;exitDy=0;exitPerimeter=0;" parent="1" edge="1">
          <mxGeometry width="50" height="50" relative="1" as="geometry">
            <mxPoint x="910" y="2352.29" as="sourcePoint" />
            <mxPoint x="345" y="2350" as="targetPoint" />
          </mxGeometry>
        </mxCell>
        <mxCell id="fYBuSzv-L18BOnukDocC-26" value="назначение лечения" style="edgeLabel;html=1;align=center;verticalAlign=middle;resizable=0;points=[];" parent="fYBuSzv-L18BOnukDocC-23" vertex="1" connectable="0">
          <mxGeometry x="0.0718" y="-2" relative="1" as="geometry">
            <mxPoint x="-4" y="-9" as="offset" />
          </mxGeometry>
        </mxCell>
        <mxCell id="fYBuSzv-L18BOnukDocC-29" value="" style="endArrow=classic;html=1;rounded=0;" parent="1" edge="1">
          <mxGeometry width="50" height="50" relative="1" as="geometry">
            <mxPoint x="340" y="2410" as="sourcePoint" />
            <mxPoint x="910" y="2410" as="targetPoint" />
          </mxGeometry>
        </mxCell>
        <mxCell id="fYBuSzv-L18BOnukDocC-31" value="повторное посещение&amp;nbsp;&lt;br&gt;врача" style="text;html=1;align=center;verticalAlign=middle;resizable=0;points=[];autosize=1;strokeColor=none;fillColor=none;" parent="1" vertex="1">
          <mxGeometry x="539.07" y="2390" width="150" height="40" as="geometry" />
        </mxCell>
        <mxCell id="fYBuSzv-L18BOnukDocC-34" value="" style="html=1;points=[];perimeter=orthogonalPerimeter;" parent="1" vertex="1">
          <mxGeometry x="335" y="2338" width="10" height="80" as="geometry" />
        </mxCell>
        <mxCell id="fYBuSzv-L18BOnukDocC-35" value="" style="endArrow=none;dashed=1;html=1;strokeWidth=2;rounded=0;exitX=0.6;exitY=-0.003;exitDx=0;exitDy=0;exitPerimeter=0;" parent="1" target="fYBuSzv-L18BOnukDocC-34" edge="1" source="jJaRIJkgBxhG0hVEQlSj-1">
          <mxGeometry width="50" height="50" relative="1" as="geometry">
            <mxPoint x="340" y="2440" as="sourcePoint" />
            <mxPoint x="340" y="2160" as="targetPoint" />
          </mxGeometry>
        </mxCell>
        <mxCell id="fYBuSzv-L18BOnukDocC-33" value="" style="html=1;points=[];perimeter=orthogonalPerimeter;" parent="1" vertex="1">
          <mxGeometry x="915" y="2338" width="10" height="80" as="geometry" />
        </mxCell>
        <mxCell id="fYBuSzv-L18BOnukDocC-36" value="" style="endArrow=none;dashed=1;html=1;strokeWidth=2;rounded=0;startArrow=none;" parent="1" target="fYBuSzv-L18BOnukDocC-33" edge="1" source="jJaRIJkgBxhG0hVEQlSj-4">
          <mxGeometry width="50" height="50" relative="1" as="geometry">
            <mxPoint x="920" y="2440" as="sourcePoint" />
            <mxPoint x="920" y="2280" as="targetPoint" />
          </mxGeometry>
        </mxCell>
        <mxCell id="fYBuSzv-L18BOnukDocC-37" value="" style="endArrow=classic;html=1;rounded=0;dashed=1;exitX=-0.3;exitY=0.513;exitDx=0;exitDy=0;exitPerimeter=0;" parent="1" edge="1">
          <mxGeometry width="50" height="50" relative="1" as="geometry">
            <mxPoint x="915" y="2482.29" as="sourcePoint" />
            <mxPoint x="350" y="2480" as="targetPoint" />
          </mxGeometry>
        </mxCell>
        <mxCell id="fYBuSzv-L18BOnukDocC-38" value="выписка" style="edgeLabel;html=1;align=center;verticalAlign=middle;resizable=0;points=[];" parent="fYBuSzv-L18BOnukDocC-37" vertex="1" connectable="0">
          <mxGeometry x="0.0718" y="-2" relative="1" as="geometry">
            <mxPoint x="-4" y="-9" as="offset" />
          </mxGeometry>
        </mxCell>
        <mxCell id="fYBuSzv-L18BOnukDocC-39" value="" style="shape=umlDestroy;" parent="1" vertex="1">
          <mxGeometry x="325" y="2590" width="30" height="30" as="geometry" />
        </mxCell>
        <mxCell id="jJaRIJkgBxhG0hVEQlSj-1" value="" style="html=1;points=[];perimeter=orthogonalPerimeter;" vertex="1" parent="1">
          <mxGeometry x="335" y="2470" width="10" height="80" as="geometry" />
        </mxCell>
        <mxCell id="jJaRIJkgBxhG0hVEQlSj-4" value="" style="html=1;points=[];perimeter=orthogonalPerimeter;" vertex="1" parent="1">
          <mxGeometry x="915" y="2470" width="10" height="80" as="geometry" />
        </mxCell>
        <mxCell id="jJaRIJkgBxhG0hVEQlSj-6" value="" style="endArrow=classic;html=1;rounded=0;dashed=1;exitX=-0.3;exitY=0.513;exitDx=0;exitDy=0;exitPerimeter=0;" edge="1" parent="1">
          <mxGeometry width="50" height="50" relative="1" as="geometry">
            <mxPoint x="910" y="2212.29" as="sourcePoint" />
            <mxPoint x="345" y="2210" as="targetPoint" />
          </mxGeometry>
        </mxCell>
        <mxCell id="jJaRIJkgBxhG0hVEQlSj-8" value="направление на&amp;nbsp;&lt;br&gt;сдачу анализов&lt;br&gt;" style="text;html=1;align=center;verticalAlign=middle;resizable=0;points=[];autosize=1;strokeColor=none;fillColor=none;" vertex="1" parent="1">
          <mxGeometry x="554.07" y="2190" width="120" height="40" as="geometry" />
        </mxCell>
        <mxCell id="jJaRIJkgBxhG0hVEQlSj-10" value="" style="endArrow=classic;html=1;rounded=0;exitX=1;exitY=0.788;exitDx=0;exitDy=0;exitPerimeter=0;" edge="1" parent="1">
          <mxGeometry width="50" height="50" relative="1" as="geometry">
            <mxPoint x="345" y="2270.04" as="sourcePoint" />
            <mxPoint x="910" y="2270" as="targetPoint" />
          </mxGeometry>
        </mxCell>
        <mxCell id="jJaRIJkgBxhG0hVEQlSj-11" value="результаты анализов" style="edgeLabel;html=1;align=center;verticalAlign=middle;resizable=0;points=[];" vertex="1" connectable="0" parent="jJaRIJkgBxhG0hVEQlSj-10">
          <mxGeometry x="-0.0749" y="4" relative="1" as="geometry">
            <mxPoint x="3" y="-6" as="offset" />
          </mxGeometry>
        </mxCell>
        <mxCell id="jJaRIJkgBxhG0hVEQlSj-12" value="" style="endArrow=none;dashed=1;html=1;strokeWidth=2;rounded=0;startArrow=none;" edge="1" parent="1">
          <mxGeometry width="50" height="50" relative="1" as="geometry">
            <mxPoint x="340" y="2602" as="sourcePoint" />
            <mxPoint x="340" y="2550" as="targetPoint" />
          </mxGeometry>
        </mxCell>
        <mxCell id="jJaRIJkgBxhG0hVEQlSj-13" value="" style="endArrow=none;dashed=1;html=1;strokeWidth=2;rounded=0;startArrow=none;" edge="1" parent="1">
          <mxGeometry x="-1" y="73" width="50" height="50" relative="1" as="geometry">
            <mxPoint x="919.5" y="2602" as="sourcePoint" />
            <mxPoint x="919.5" y="2550" as="targetPoint" />
            <mxPoint x="53" y="70" as="offset" />
          </mxGeometry>
        </mxCell>
      </root>
    </mxGraphModel>
  </diagram>
  <diagram id="6q_xxQnltwbAZZIM9DJk" name="Страница 2">
    <mxGraphModel dx="1422" dy="794" grid="1" gridSize="10" guides="1" tooltips="1" connect="1" arrows="1" fold="1" page="1" pageScale="1" pageWidth="827" pageHeight="1169" math="0" shadow="0">
      <root>
        <mxCell id="0" />
        <mxCell id="1" parent="0" />
      </root>
    </mxGraphModel>
  </diagram>
</mxfile>
